# xmcd CD database file
#
# Track frame offsets:
#	150
#	3349
#	47102
#	83749
#	125426
#	164574
#	201096
#	227468
#	256883
#	290691
#	309408
#
# Disc length: 4569 seconds
#
# Revision: 2
# Processed by: cddbd v1.5.2PL0 Copyright (c) Steve Scherf et al.
# Submitted via: CDex 1.77
#
DISCID=8d11d70b
DTITLE=Frantisek Uhlir with The Friends - Frantisek Uhlir 60
DYEAR=2010
DGENRE=Jazz
TTITLE0=Uvodni slovo V. Klaus
TTITLE1=Expectation
TTITLE2=Father s Blues
TTITLE3=The Castles in the Air
TTITLE4=Wabash
TTITLE5=Sarahs Bande
TTITLE6=Nenazvana
TTITLE7=Song for G. Mraz
TTITLE8=Let s Go On
TTITLE9=Song For Jane
TTITLE10=Softly as in the Morning Sunrise
EXTD=YEAR: 2010
EXTT0=
EXTT1=
EXTT2=
EXTT3=
EXTT4=
EXTT5=
EXTT6=
EXTT7=
EXTT8=
EXTT9=
EXTT10=
PLAYORDER=
